%TF.GenerationSoftware,KiCad,Pcbnew,8.0.1*%
%TF.CreationDate,2024-04-26T17:01:43+02:00*%
%TF.ProjectId,PiCOLECO,5069434f-4c45-4434-9f2e-6b696361645f,1*%
%TF.SameCoordinates,Original*%
%TF.FileFunction,Copper,L1,Top*%
%TF.FilePolarity,Positive*%
%FSLAX46Y46*%
G04 Gerber Fmt 4.6, Leading zero omitted, Abs format (unit mm)*
G04 Created by KiCad (PCBNEW 8.0.1) date 2024-04-26 17:01:43*
%MOMM*%
%LPD*%
G01*
G04 APERTURE LIST*
%TA.AperFunction,EtchedComponent*%
%ADD10C,0.500000*%
%TD*%
%TA.AperFunction,EtchedComponent*%
%ADD11C,0.100000*%
%TD*%
%TA.AperFunction,ConnectorPad*%
%ADD12R,1.750000X7.000000*%
%TD*%
%TA.AperFunction,ConnectorPad*%
%ADD13R,1.750000X5.750000*%
%TD*%
%TA.AperFunction,ComponentPad*%
%ADD14C,2.000000*%
%TD*%
%TA.AperFunction,ComponentPad*%
%ADD15R,1.700000X1.700000*%
%TD*%
%TA.AperFunction,ComponentPad*%
%ADD16O,1.700000X1.700000*%
%TD*%
%TA.AperFunction,ComponentPad*%
%ADD17R,1.600000X1.600000*%
%TD*%
%TA.AperFunction,ComponentPad*%
%ADD18O,1.600000X1.600000*%
%TD*%
%TA.AperFunction,ViaPad*%
%ADD19C,0.800000*%
%TD*%
%TA.AperFunction,Conductor*%
%ADD20C,0.250000*%
%TD*%
G04 APERTURE END LIST*
D10*
%TO.C,X1*%
X117894100Y-145912700D02*
G75*
G02*
X117068600Y-146738200I-825500J0D01*
G01*
D11*
X119075200Y-150992700D02*
X119075200Y-151627700D01*
X118821200Y-151945200D01*
X118313200Y-152135700D01*
X117678200Y-152135700D01*
X117678200Y-136324200D01*
X119075200Y-136324200D01*
X119075200Y-150992700D01*
%TA.AperFunction,EtchedComponent*%
G36*
X119075200Y-150992700D02*
G01*
X119075200Y-151627700D01*
X118821200Y-151945200D01*
X118313200Y-152135700D01*
X117678200Y-152135700D01*
X117678200Y-136324200D01*
X119075200Y-136324200D01*
X119075200Y-150992700D01*
G37*
%TD.AperFunction*%
%TD*%
D12*
%TO.P,X1,2,~{EN-C0}*%
%TO.N,/~{FCE2}*%
X81292700Y-149976700D03*
%TO.P,X1,4,D3*%
%TO.N,D3*%
X83832700Y-149976700D03*
%TO.P,X1,6,D4*%
%TO.N,D4*%
X86372700Y-149976700D03*
%TO.P,X1,8,D5*%
%TO.N,D5*%
X88912700Y-149976700D03*
%TO.P,X1,10,D6*%
%TO.N,D6*%
X91452700Y-149976700D03*
%TO.P,X1,12,D7*%
%TO.N,D7*%
X93992700Y-149976700D03*
%TO.P,X1,14,A11*%
%TO.N,A11*%
X96532700Y-149976700D03*
%TO.P,X1,16,A10*%
%TO.N,A10*%
X99072700Y-149976700D03*
%TO.P,X1,18,~{EN-80}*%
%TO.N,/~{FCE0}*%
X101612700Y-149976700D03*
%TO.P,X1,20,A14*%
%TO.N,A14*%
X104152700Y-149976700D03*
%TO.P,X1,22,~{EN-A0}*%
%TO.N,/~{FCE1}*%
X106692700Y-149976700D03*
%TO.P,X1,24,A12*%
%TO.N,A12*%
X109232700Y-149976700D03*
%TO.P,X1,26,A9*%
%TO.N,A9*%
X111772700Y-149976700D03*
%TO.P,X1,28,A8*%
%TO.N,A8*%
X114312700Y-149976700D03*
D13*
%TO.P,X1,30,Vcc*%
%TO.N,+5V*%
X116852700Y-149341700D03*
%TD*%
D14*
%TO.P,SW1,1,1*%
%TO.N,RST*%
X109875000Y-73650000D03*
X116375000Y-73650000D03*
%TO.P,SW1,2,2*%
%TO.N,GND*%
X109875000Y-78150000D03*
X116375000Y-78150000D03*
%TD*%
D15*
%TO.P,J2,1,Pin_1*%
%TO.N,unconnected-(J2-Pin_1-Pad1)*%
X103375000Y-73385000D03*
D16*
%TO.P,J2,2,Pin_2*%
%TO.N,Net-(D1-K)*%
X103375000Y-75925000D03*
%TO.P,J2,3,Pin_3*%
%TO.N,GND*%
X103375000Y-78465000D03*
%TO.P,J2,4,Pin_4*%
%TO.N,unconnected-(J2-Pin_4-Pad4)*%
X103375000Y-81005000D03*
%TO.P,J2,5,Pin_5*%
%TO.N,unconnected-(J2-Pin_5-Pad5)*%
X103375000Y-83545000D03*
%TO.P,J2,6,Pin_6*%
%TO.N,GND*%
X103375000Y-86085000D03*
%TO.P,J2,7,Pin_7*%
%TO.N,RST*%
X103375000Y-88625000D03*
%TO.P,J2,8,Pin_8*%
%TO.N,unconnected-(J2-Pin_8-Pad8)*%
X103375000Y-91165000D03*
%TO.P,J2,9,Pin_9*%
%TO.N,unconnected-(J2-Pin_9-Pad9)*%
X103375000Y-93705000D03*
%TO.P,J2,10,Pin_10*%
%TO.N,/~{FCE3}*%
X103375000Y-96245000D03*
%TO.P,J2,11,Pin_11*%
%TO.N,/~{FCE2}*%
X103375000Y-98785000D03*
%TO.P,J2,12,Pin_12*%
%TO.N,GND*%
X103375000Y-101325000D03*
%TO.P,J2,13,Pin_13*%
%TO.N,/~{FCE1}*%
X103375000Y-103865000D03*
%TO.P,J2,14,Pin_14*%
%TO.N,/~{FCE0}*%
X103375000Y-106405000D03*
%TO.P,J2,15,Pin_15*%
%TO.N,D7*%
X103375000Y-108945000D03*
%TO.P,J2,16,Pin_16*%
%TO.N,D6*%
X103375000Y-111485000D03*
%TO.P,J2,17,Pin_17*%
%TO.N,D5*%
X103375000Y-114025000D03*
%TO.P,J2,18,Pin_18*%
%TO.N,D4*%
X103375000Y-116565000D03*
%TO.P,J2,19,Pin_19*%
%TO.N,D3*%
X103375000Y-119105000D03*
%TO.P,J2,20,Pin_20*%
%TO.N,D2*%
X103375000Y-121645000D03*
%TD*%
D15*
%TO.P,J1,1,Pin_1*%
%TO.N,A0*%
X85600000Y-73385000D03*
D16*
%TO.P,J1,2,Pin_2*%
%TO.N,A1*%
X85600000Y-75925000D03*
%TO.P,J1,3,Pin_3*%
%TO.N,A2*%
X85600000Y-78465000D03*
%TO.P,J1,4,Pin_4*%
%TO.N,A3*%
X85600000Y-81005000D03*
%TO.P,J1,5,Pin_5*%
%TO.N,A4*%
X85600000Y-83545000D03*
%TO.P,J1,6,Pin_6*%
%TO.N,GND*%
X85600000Y-86085000D03*
%TO.P,J1,7,Pin_7*%
%TO.N,A5*%
X85600000Y-88625000D03*
%TO.P,J1,8,Pin_8*%
%TO.N,A6*%
X85600000Y-91165000D03*
%TO.P,J1,9,Pin_9*%
%TO.N,A7*%
X85600000Y-93705000D03*
%TO.P,J1,10,Pin_10*%
%TO.N,A8*%
X85600000Y-96245000D03*
%TO.P,J1,11,Pin_11*%
%TO.N,A9*%
X85600000Y-98785000D03*
%TO.P,J1,12,Pin_12*%
%TO.N,A10*%
X85600000Y-101325000D03*
%TO.P,J1,13,Pin_13*%
%TO.N,A11*%
X85600000Y-103865000D03*
%TO.P,J1,14,Pin_14*%
%TO.N,A12*%
X85600000Y-106405000D03*
%TO.P,J1,15,Pin_15*%
%TO.N,GND*%
X85600000Y-108945000D03*
%TO.P,J1,16,Pin_16*%
%TO.N,A13*%
X85600000Y-111485000D03*
%TO.P,J1,17,Pin_17*%
%TO.N,A14*%
X85600000Y-114025000D03*
%TO.P,J1,18,Pin_18*%
%TO.N,unconnected-(J1-Pin_18-Pad18)*%
X85600000Y-116565000D03*
%TO.P,J1,19,Pin_19*%
%TO.N,D0*%
X85600000Y-119105000D03*
%TO.P,J1,20,Pin_20*%
%TO.N,D1*%
X85600000Y-121645000D03*
%TD*%
D17*
%TO.P,D1,1,K*%
%TO.N,Net-(D1-K)*%
X114125000Y-107535000D03*
D18*
%TO.P,D1,2,A*%
%TO.N,+5V*%
X114125000Y-99915000D03*
%TD*%
D19*
%TO.N,D7*%
X93903200Y-131540300D03*
%TO.N,D4*%
X89245900Y-141770900D03*
%TO.N,D5*%
X90783300Y-135893800D03*
%TO.N,D3*%
X87273600Y-139250200D03*
%TO.N,D6*%
X91439400Y-134642900D03*
%TO.N,A2*%
X83819300Y-138193500D03*
%TO.N,A1*%
X83730000Y-139224200D03*
%TO.N,A3*%
X84743200Y-137509400D03*
%TO.N,A5*%
X107987400Y-120949200D03*
%TO.N,D1*%
X84670400Y-141832800D03*
%TO.N,D0*%
X86615300Y-144431600D03*
%TO.N,A0*%
X82032900Y-139249200D03*
%TO.N,A10*%
X95730100Y-125700400D03*
%TO.N,A6*%
X108274000Y-127168900D03*
%TO.N,A11*%
X96486300Y-127511100D03*
%TO.N,A4*%
X95688200Y-141113200D03*
%TO.N,/~{FCE0}*%
X102478600Y-143799500D03*
%TO.N,/~{FCE1}*%
X106319300Y-128589200D03*
%TO.N,/~{FCE2}*%
X80336100Y-97261100D03*
%TD*%
D20*
%TO.N,D7*%
X93992700Y-149976700D02*
X93992700Y-146150000D01*
X93992700Y-131629800D02*
X93903200Y-131540300D01*
X93992700Y-146150000D02*
X93992700Y-131629800D01*
%TO.N,D4*%
X86372700Y-149976700D02*
X86372700Y-146150000D01*
X88164100Y-142852700D02*
X89245900Y-141770900D01*
X88164100Y-144358600D02*
X88164100Y-142852700D01*
X86372700Y-146150000D02*
X88164100Y-144358600D01*
%TO.N,D5*%
X90783300Y-142376100D02*
X90783300Y-135893800D01*
X88912700Y-144246700D02*
X90783300Y-142376100D01*
X88912700Y-149976700D02*
X88912700Y-144246700D01*
%TO.N,D3*%
X83832700Y-143897800D02*
X83832700Y-149976700D01*
X87273600Y-140456900D02*
X83832700Y-143897800D01*
X87273600Y-139250200D02*
X87273600Y-140456900D01*
%TO.N,D6*%
X91452700Y-149976700D02*
X91452700Y-146150000D01*
X91518600Y-134722100D02*
X91439400Y-134642900D01*
X91518600Y-146084100D02*
X91518600Y-134722100D01*
X91452700Y-146150000D02*
X91518600Y-146084100D01*
%TO.N,A14*%
X85600000Y-114025000D02*
X85600000Y-115201700D01*
X86259100Y-115201700D02*
X85600000Y-115201700D01*
X104152700Y-133095300D02*
X86259100Y-115201700D01*
X104152700Y-149976700D02*
X104152700Y-133095300D01*
%TO.N,A2*%
X85600000Y-78465000D02*
X85600000Y-79641700D01*
X83451600Y-137825800D02*
X83819300Y-138193500D01*
X83451600Y-81422400D02*
X83451600Y-137825800D01*
X85232300Y-79641700D02*
X83451600Y-81422400D01*
X85600000Y-79641700D02*
X85232300Y-79641700D01*
%TO.N,A1*%
X85600000Y-75925000D02*
X85600000Y-77101700D01*
X82978200Y-138472400D02*
X83730000Y-139224200D01*
X82978200Y-79355800D02*
X82978200Y-138472400D01*
X85232300Y-77101700D02*
X82978200Y-79355800D01*
X85600000Y-77101700D02*
X85232300Y-77101700D01*
%TO.N,A3*%
X83951100Y-136717300D02*
X84743200Y-137509400D01*
X83951100Y-83462900D02*
X83951100Y-136717300D01*
X85232300Y-82181700D02*
X83951100Y-83462900D01*
X85600000Y-82181700D02*
X85232300Y-82181700D01*
X85600000Y-81005000D02*
X85600000Y-82181700D01*
%TO.N,A5*%
X85600000Y-88625000D02*
X85600000Y-89801700D01*
X85967800Y-89801700D02*
X85600000Y-89801700D01*
X93403600Y-97237500D02*
X85967800Y-89801700D01*
X93403600Y-103188100D02*
X93403600Y-97237500D01*
X102953800Y-112738300D02*
X93403600Y-103188100D01*
X103860500Y-112738300D02*
X102953800Y-112738300D01*
X107987400Y-116865200D02*
X103860500Y-112738300D01*
X107987400Y-120949200D02*
X107987400Y-116865200D01*
%TO.N,D1*%
X85600000Y-121645000D02*
X85600000Y-122821700D01*
X85600000Y-140903200D02*
X85600000Y-122821700D01*
X84670400Y-141832800D02*
X85600000Y-140903200D01*
%TO.N,A12*%
X85600000Y-106405000D02*
X85600000Y-107581700D01*
X109232700Y-149976700D02*
X109232700Y-146150000D01*
X109232700Y-130461900D02*
X109232700Y-146150000D01*
X86352500Y-107581700D02*
X109232700Y-130461900D01*
X85600000Y-107581700D02*
X86352500Y-107581700D01*
%TO.N,A9*%
X111772700Y-132354300D02*
X111772700Y-149976700D01*
X86776700Y-107358300D02*
X111772700Y-132354300D01*
X86776700Y-100770600D02*
X86776700Y-107358300D01*
X85967800Y-99961700D02*
X86776700Y-100770600D01*
X85600000Y-99961700D02*
X85967800Y-99961700D01*
X85600000Y-98785000D02*
X85600000Y-99961700D01*
%TO.N,D0*%
X86615300Y-142631300D02*
X86615300Y-144431600D01*
X88038600Y-141208000D02*
X86615300Y-142631300D01*
X88038600Y-122352600D02*
X88038600Y-141208000D01*
X85967700Y-120281700D02*
X88038600Y-122352600D01*
X85600000Y-120281700D02*
X85967700Y-120281700D01*
X85600000Y-119105000D02*
X85600000Y-120281700D01*
%TO.N,A8*%
X85600000Y-96245000D02*
X85600000Y-97421700D01*
X85977200Y-97421700D02*
X85600000Y-97421700D01*
X100144400Y-111588900D02*
X85977200Y-97421700D01*
X100144400Y-120078600D02*
X100144400Y-111588900D01*
X114312700Y-134246900D02*
X100144400Y-120078600D01*
X114312700Y-149976700D02*
X114312700Y-134246900D01*
%TO.N,A0*%
X85600000Y-73385000D02*
X85600000Y-74561700D01*
X82032900Y-77761100D02*
X82032900Y-139249200D01*
X85232300Y-74561700D02*
X82032900Y-77761100D01*
X85600000Y-74561700D02*
X85232300Y-74561700D01*
%TO.N,A10*%
X99072700Y-129043000D02*
X99072700Y-149976700D01*
X95730100Y-125700400D02*
X99072700Y-129043000D01*
%TO.N,A6*%
X85600000Y-91165000D02*
X85600000Y-92341700D01*
X105740000Y-124634900D02*
X108274000Y-127168900D01*
X105740000Y-119727300D02*
X105740000Y-124634900D01*
X103847700Y-117835000D02*
X105740000Y-119727300D01*
X102922400Y-117835000D02*
X103847700Y-117835000D01*
X100755200Y-115667800D02*
X102922400Y-117835000D01*
X100755200Y-111178500D02*
X100755200Y-115667800D01*
X86776700Y-97200000D02*
X100755200Y-111178500D01*
X86776700Y-93150600D02*
X86776700Y-97200000D01*
X85967800Y-92341700D02*
X86776700Y-93150600D01*
X85600000Y-92341700D02*
X85967800Y-92341700D01*
%TO.N,A11*%
X96532700Y-149976700D02*
X96532700Y-146150000D01*
X96486300Y-146103600D02*
X96486300Y-127511100D01*
X96532700Y-146150000D02*
X96486300Y-146103600D01*
%TO.N,A4*%
X85600000Y-83545000D02*
X85600000Y-84721700D01*
X85232300Y-84721700D02*
X85600000Y-84721700D01*
X84402800Y-85551200D02*
X85232300Y-84721700D01*
X84402800Y-117045400D02*
X84402800Y-85551200D01*
X85192400Y-117835000D02*
X84402800Y-117045400D01*
X86009700Y-117835000D02*
X85192400Y-117835000D01*
X95688200Y-127513500D02*
X86009700Y-117835000D01*
X95688200Y-141113200D02*
X95688200Y-127513500D01*
%TO.N,+5V*%
X114125000Y-99915000D02*
X114125000Y-101041700D01*
X116852700Y-103769400D02*
X116852700Y-149341700D01*
X114125000Y-101041700D02*
X116852700Y-103769400D01*
%TO.N,GND*%
X103742800Y-87261700D02*
X103375000Y-87261700D01*
X104551700Y-88070600D02*
X103742800Y-87261700D01*
X104551700Y-99339300D02*
X104551700Y-88070600D01*
X103742700Y-100148300D02*
X104551700Y-99339300D01*
X103375000Y-100148300D02*
X103742700Y-100148300D01*
X103375000Y-101325000D02*
X103375000Y-100148300D01*
X103375000Y-86085000D02*
X103375000Y-86673300D01*
X103375000Y-86673300D02*
X103375000Y-87261700D01*
X87365000Y-86673300D02*
X86776700Y-86085000D01*
X103375000Y-86673300D02*
X87365000Y-86673300D01*
X85600000Y-86085000D02*
X86776700Y-86085000D01*
%TO.N,Net-(D1-K)*%
X103742700Y-77101700D02*
X103375000Y-77101700D01*
X112998300Y-86357300D02*
X103742700Y-77101700D01*
X112998300Y-105281600D02*
X112998300Y-86357300D01*
X114125000Y-106408300D02*
X112998300Y-105281600D01*
X114125000Y-107535000D02*
X114125000Y-106408300D01*
X103375000Y-75925000D02*
X103375000Y-77101700D01*
%TO.N,/~{FCE0}*%
X102478600Y-145284100D02*
X102478600Y-143799500D01*
X101612700Y-146150000D02*
X102478600Y-145284100D01*
X101612700Y-149976700D02*
X101612700Y-146150000D01*
%TO.N,/~{FCE1}*%
X106692700Y-149976700D02*
X106692700Y-146150000D01*
X106692700Y-128962600D02*
X106319300Y-128589200D01*
X106692700Y-146150000D02*
X106692700Y-128962600D01*
%TO.N,/~{FCE2}*%
X81292700Y-149976700D02*
X81292700Y-146150000D01*
X80336100Y-145193400D02*
X80336100Y-97261100D01*
X81292700Y-146150000D02*
X80336100Y-145193400D01*
%TD*%
M02*
