%TF.GenerationSoftware,KiCad,Pcbnew,8.0.1*%
%TF.CreationDate,2024-04-26T17:01:43+02:00*%
%TF.ProjectId,PiCOLECO,5069434f-4c45-4434-9f2e-6b696361645f,1*%
%TF.SameCoordinates,Original*%
%TF.FileFunction,Soldermask,Bot*%
%TF.FilePolarity,Negative*%
%FSLAX46Y46*%
G04 Gerber Fmt 4.6, Leading zero omitted, Abs format (unit mm)*
G04 Created by KiCad (PCBNEW 8.0.1) date 2024-04-26 17:01:43*
%MOMM*%
%LPD*%
G01*
G04 APERTURE LIST*
%ADD10C,0.100000*%
%ADD11R,1.750000X7.000000*%
%ADD12C,2.000000*%
%ADD13R,1.700000X1.700000*%
%ADD14O,1.700000X1.700000*%
%ADD15R,1.600000X1.600000*%
%ADD16O,1.600000X1.600000*%
G04 APERTURE END LIST*
D10*
%TO.C,X1*%
X119138700Y-153532700D02*
X78943200Y-153469200D01*
X78943200Y-146547700D01*
X119138700Y-146547700D01*
X119138700Y-153532700D01*
G36*
X119138700Y-153532700D02*
G01*
X78943200Y-153469200D01*
X78943200Y-146547700D01*
X119138700Y-146547700D01*
X119138700Y-153532700D01*
G37*
%TD*%
D11*
%TO.C,X1*%
X81292700Y-150040200D03*
X83832700Y-150040200D03*
X86372700Y-150040200D03*
X88912700Y-150040200D03*
X91452700Y-150040200D03*
X93992700Y-150040200D03*
X96532700Y-150040200D03*
X99072700Y-150040200D03*
X101612700Y-150040200D03*
X104152700Y-150040200D03*
X106692700Y-150040200D03*
X109232700Y-150040200D03*
X111772700Y-150040200D03*
X114312700Y-150040200D03*
X116852700Y-150040200D03*
%TD*%
D12*
%TO.C,SW1*%
X109875000Y-73650000D03*
X116375000Y-73650000D03*
X109875000Y-78150000D03*
X116375000Y-78150000D03*
%TD*%
D13*
%TO.C,J2*%
X103375000Y-73385000D03*
D14*
X103375000Y-75925000D03*
X103375000Y-78465000D03*
X103375000Y-81005000D03*
X103375000Y-83545000D03*
X103375000Y-86085000D03*
X103375000Y-88625000D03*
X103375000Y-91165000D03*
X103375000Y-93705000D03*
X103375000Y-96245000D03*
X103375000Y-98785000D03*
X103375000Y-101325000D03*
X103375000Y-103865000D03*
X103375000Y-106405000D03*
X103375000Y-108945000D03*
X103375000Y-111485000D03*
X103375000Y-114025000D03*
X103375000Y-116565000D03*
X103375000Y-119105000D03*
X103375000Y-121645000D03*
%TD*%
D13*
%TO.C,J1*%
X85600000Y-73385000D03*
D14*
X85600000Y-75925000D03*
X85600000Y-78465000D03*
X85600000Y-81005000D03*
X85600000Y-83545000D03*
X85600000Y-86085000D03*
X85600000Y-88625000D03*
X85600000Y-91165000D03*
X85600000Y-93705000D03*
X85600000Y-96245000D03*
X85600000Y-98785000D03*
X85600000Y-101325000D03*
X85600000Y-103865000D03*
X85600000Y-106405000D03*
X85600000Y-108945000D03*
X85600000Y-111485000D03*
X85600000Y-114025000D03*
X85600000Y-116565000D03*
X85600000Y-119105000D03*
X85600000Y-121645000D03*
%TD*%
D15*
%TO.C,D1*%
X114125000Y-107535000D03*
D16*
X114125000Y-99915000D03*
%TD*%
M02*
