M48
; DRILL file {KiCad 8.0.1} date 2024-04-26T17:01:43+0200
; FORMAT={-:-/ absolute / inch / decimal}
; #@! TF.CreationDate,2024-04-26T17:01:43+02:00
; #@! TF.GenerationSoftware,Kicad,Pcbnew,8.0.1
; #@! TF.FileFunction,Plated,1,2,PTH
FMAT,2
INCH
; #@! TA.AperFunction,Plated,PTH,ViaDrill
T1C0.0157
; #@! TA.AperFunction,Plated,PTH,ComponentDrill
T2C0.0315
; #@! TA.AperFunction,Plated,PTH,ComponentDrill
T3C0.0394
; #@! TA.AperFunction,Plated,PTH,ComponentDrill
T4C0.0433
%
G90
G05
T1
X3.1628Y-3.8292
X3.2296Y-5.4823
X3.2965Y-5.4813
X3.3Y-5.4407
X3.3335Y-5.584
X3.3363Y-5.4138
X3.4101Y-5.6863
X3.436Y-5.4823
X3.5136Y-5.5815
X3.5741Y-5.3501
X3.6Y-5.3009
X3.697Y-5.1788
X3.7673Y-5.5556
X3.7689Y-4.9488
X3.7987Y-5.0201
X4.0346Y-5.6614
X4.1858Y-5.0626
X4.2515Y-4.7618
X4.2628Y-5.0066
T2
X4.4931Y-3.9337
X4.4931Y-4.2337
T3
X3.3701Y-2.8892
X3.3701Y-2.9892
X3.3701Y-3.0892
X3.3701Y-3.1892
X3.3701Y-3.2892
X3.3701Y-3.3892
X3.3701Y-3.4892
X3.3701Y-3.5892
X3.3701Y-3.6892
X3.3701Y-3.7892
X3.3701Y-3.8892
X3.3701Y-3.9892
X3.3701Y-4.0892
X3.3701Y-4.1892
X3.3701Y-4.2892
X3.3701Y-4.3892
X3.3701Y-4.4892
X3.3701Y-4.5892
X3.3701Y-4.6892
X3.3701Y-4.7892
X4.0699Y-2.8892
X4.0699Y-2.9892
X4.0699Y-3.0892
X4.0699Y-3.1892
X4.0699Y-3.2892
X4.0699Y-3.3892
X4.0699Y-3.4892
X4.0699Y-3.5892
X4.0699Y-3.6892
X4.0699Y-3.7892
X4.0699Y-3.8892
X4.0699Y-3.9892
X4.0699Y-4.0892
X4.0699Y-4.1892
X4.0699Y-4.2892
X4.0699Y-4.3892
X4.0699Y-4.4892
X4.0699Y-4.5892
X4.0699Y-4.6892
X4.0699Y-4.7892
T4
X4.3258Y-2.8996
X4.3258Y-3.0768
X4.5817Y-2.8996
X4.5817Y-3.0768
M30
