%TF.GenerationSoftware,KiCad,Pcbnew,8.0.1*%
%TF.CreationDate,2024-04-26T17:01:43+02:00*%
%TF.ProjectId,PiCOLECO,5069434f-4c45-4434-9f2e-6b696361645f,1*%
%TF.SameCoordinates,Original*%
%TF.FileFunction,Legend,Top*%
%TF.FilePolarity,Positive*%
%FSLAX46Y46*%
G04 Gerber Fmt 4.6, Leading zero omitted, Abs format (unit mm)*
G04 Created by KiCad (PCBNEW 8.0.1) date 2024-04-26 17:01:43*
%MOMM*%
%LPD*%
G01*
G04 APERTURE LIST*
%ADD10C,0.150000*%
%ADD11C,0.300000*%
%ADD12C,0.250000*%
%ADD13C,0.200000*%
%ADD14C,0.100000*%
%ADD15C,0.120000*%
%ADD16R,1.750000X7.000000*%
%ADD17R,1.750000X5.750000*%
%ADD18C,2.000000*%
%ADD19R,1.700000X1.700000*%
%ADD20O,1.700000X1.700000*%
%ADD21R,1.600000X1.600000*%
%ADD22O,1.600000X1.600000*%
G04 APERTURE END LIST*
D10*
X93069048Y-93624931D02*
X93069048Y-92624931D01*
X93069048Y-92624931D02*
X93450000Y-92624931D01*
X93450000Y-92624931D02*
X93545238Y-92672550D01*
X93545238Y-92672550D02*
X93592857Y-92720169D01*
X93592857Y-92720169D02*
X93640476Y-92815407D01*
X93640476Y-92815407D02*
X93640476Y-92958264D01*
X93640476Y-92958264D02*
X93592857Y-93053502D01*
X93592857Y-93053502D02*
X93545238Y-93101121D01*
X93545238Y-93101121D02*
X93450000Y-93148740D01*
X93450000Y-93148740D02*
X93069048Y-93148740D01*
X94069048Y-93624931D02*
X94069048Y-92958264D01*
X94069048Y-92624931D02*
X94021429Y-92672550D01*
X94021429Y-92672550D02*
X94069048Y-92720169D01*
X94069048Y-92720169D02*
X94116667Y-92672550D01*
X94116667Y-92672550D02*
X94069048Y-92624931D01*
X94069048Y-92624931D02*
X94069048Y-92720169D01*
X94973809Y-93577312D02*
X94878571Y-93624931D01*
X94878571Y-93624931D02*
X94688095Y-93624931D01*
X94688095Y-93624931D02*
X94592857Y-93577312D01*
X94592857Y-93577312D02*
X94545238Y-93529692D01*
X94545238Y-93529692D02*
X94497619Y-93434454D01*
X94497619Y-93434454D02*
X94497619Y-93148740D01*
X94497619Y-93148740D02*
X94545238Y-93053502D01*
X94545238Y-93053502D02*
X94592857Y-93005883D01*
X94592857Y-93005883D02*
X94688095Y-92958264D01*
X94688095Y-92958264D02*
X94878571Y-92958264D01*
X94878571Y-92958264D02*
X94973809Y-93005883D01*
X95545238Y-93624931D02*
X95450000Y-93577312D01*
X95450000Y-93577312D02*
X95402381Y-93529692D01*
X95402381Y-93529692D02*
X95354762Y-93434454D01*
X95354762Y-93434454D02*
X95354762Y-93148740D01*
X95354762Y-93148740D02*
X95402381Y-93053502D01*
X95402381Y-93053502D02*
X95450000Y-93005883D01*
X95450000Y-93005883D02*
X95545238Y-92958264D01*
X95545238Y-92958264D02*
X95688095Y-92958264D01*
X95688095Y-92958264D02*
X95783333Y-93005883D01*
X95783333Y-93005883D02*
X95830952Y-93053502D01*
X95830952Y-93053502D02*
X95878571Y-93148740D01*
X95878571Y-93148740D02*
X95878571Y-93434454D01*
X95878571Y-93434454D02*
X95830952Y-93529692D01*
X95830952Y-93529692D02*
X95783333Y-93577312D01*
X95783333Y-93577312D02*
X95688095Y-93624931D01*
X95688095Y-93624931D02*
X95545238Y-93624931D01*
X91473809Y-94234875D02*
X91473809Y-94425351D01*
X91854761Y-94234875D02*
X91854761Y-94425351D01*
X92283333Y-95234875D02*
X92283333Y-94234875D01*
X92283333Y-94234875D02*
X92664285Y-94234875D01*
X92664285Y-94234875D02*
X92759523Y-94282494D01*
X92759523Y-94282494D02*
X92807142Y-94330113D01*
X92807142Y-94330113D02*
X92854761Y-94425351D01*
X92854761Y-94425351D02*
X92854761Y-94568208D01*
X92854761Y-94568208D02*
X92807142Y-94663446D01*
X92807142Y-94663446D02*
X92759523Y-94711065D01*
X92759523Y-94711065D02*
X92664285Y-94758684D01*
X92664285Y-94758684D02*
X92283333Y-94758684D01*
X93711904Y-94568208D02*
X93711904Y-95234875D01*
X93283333Y-94568208D02*
X93283333Y-95092017D01*
X93283333Y-95092017D02*
X93330952Y-95187256D01*
X93330952Y-95187256D02*
X93426190Y-95234875D01*
X93426190Y-95234875D02*
X93569047Y-95234875D01*
X93569047Y-95234875D02*
X93664285Y-95187256D01*
X93664285Y-95187256D02*
X93711904Y-95139636D01*
X94188095Y-95234875D02*
X94188095Y-94568208D01*
X94188095Y-94758684D02*
X94235714Y-94663446D01*
X94235714Y-94663446D02*
X94283333Y-94615827D01*
X94283333Y-94615827D02*
X94378571Y-94568208D01*
X94378571Y-94568208D02*
X94473809Y-94568208D01*
X94807143Y-94568208D02*
X94807143Y-95568208D01*
X94807143Y-94615827D02*
X94902381Y-94568208D01*
X94902381Y-94568208D02*
X95092857Y-94568208D01*
X95092857Y-94568208D02*
X95188095Y-94615827D01*
X95188095Y-94615827D02*
X95235714Y-94663446D01*
X95235714Y-94663446D02*
X95283333Y-94758684D01*
X95283333Y-94758684D02*
X95283333Y-95044398D01*
X95283333Y-95044398D02*
X95235714Y-95139636D01*
X95235714Y-95139636D02*
X95188095Y-95187256D01*
X95188095Y-95187256D02*
X95092857Y-95234875D01*
X95092857Y-95234875D02*
X94902381Y-95234875D01*
X94902381Y-95234875D02*
X94807143Y-95187256D01*
X95854762Y-95234875D02*
X95759524Y-95187256D01*
X95759524Y-95187256D02*
X95711905Y-95092017D01*
X95711905Y-95092017D02*
X95711905Y-94234875D01*
X96616667Y-95187256D02*
X96521429Y-95234875D01*
X96521429Y-95234875D02*
X96330953Y-95234875D01*
X96330953Y-95234875D02*
X96235715Y-95187256D01*
X96235715Y-95187256D02*
X96188096Y-95092017D01*
X96188096Y-95092017D02*
X96188096Y-94711065D01*
X96188096Y-94711065D02*
X96235715Y-94615827D01*
X96235715Y-94615827D02*
X96330953Y-94568208D01*
X96330953Y-94568208D02*
X96521429Y-94568208D01*
X96521429Y-94568208D02*
X96616667Y-94615827D01*
X96616667Y-94615827D02*
X96664286Y-94711065D01*
X96664286Y-94711065D02*
X96664286Y-94806303D01*
X96664286Y-94806303D02*
X96188096Y-94901541D01*
X97045239Y-94234875D02*
X97045239Y-94425351D01*
X97426191Y-94234875D02*
X97426191Y-94425351D01*
X93164285Y-96749580D02*
X93116666Y-96797200D01*
X93116666Y-96797200D02*
X92973809Y-96844819D01*
X92973809Y-96844819D02*
X92878571Y-96844819D01*
X92878571Y-96844819D02*
X92735714Y-96797200D01*
X92735714Y-96797200D02*
X92640476Y-96701961D01*
X92640476Y-96701961D02*
X92592857Y-96606723D01*
X92592857Y-96606723D02*
X92545238Y-96416247D01*
X92545238Y-96416247D02*
X92545238Y-96273390D01*
X92545238Y-96273390D02*
X92592857Y-96082914D01*
X92592857Y-96082914D02*
X92640476Y-95987676D01*
X92640476Y-95987676D02*
X92735714Y-95892438D01*
X92735714Y-95892438D02*
X92878571Y-95844819D01*
X92878571Y-95844819D02*
X92973809Y-95844819D01*
X92973809Y-95844819D02*
X93116666Y-95892438D01*
X93116666Y-95892438D02*
X93164285Y-95940057D01*
X93735714Y-96844819D02*
X93640476Y-96797200D01*
X93640476Y-96797200D02*
X93592857Y-96701961D01*
X93592857Y-96701961D02*
X93592857Y-95844819D01*
X94259524Y-96844819D02*
X94164286Y-96797200D01*
X94164286Y-96797200D02*
X94116667Y-96749580D01*
X94116667Y-96749580D02*
X94069048Y-96654342D01*
X94069048Y-96654342D02*
X94069048Y-96368628D01*
X94069048Y-96368628D02*
X94116667Y-96273390D01*
X94116667Y-96273390D02*
X94164286Y-96225771D01*
X94164286Y-96225771D02*
X94259524Y-96178152D01*
X94259524Y-96178152D02*
X94402381Y-96178152D01*
X94402381Y-96178152D02*
X94497619Y-96225771D01*
X94497619Y-96225771D02*
X94545238Y-96273390D01*
X94545238Y-96273390D02*
X94592857Y-96368628D01*
X94592857Y-96368628D02*
X94592857Y-96654342D01*
X94592857Y-96654342D02*
X94545238Y-96749580D01*
X94545238Y-96749580D02*
X94497619Y-96797200D01*
X94497619Y-96797200D02*
X94402381Y-96844819D01*
X94402381Y-96844819D02*
X94259524Y-96844819D01*
X95021429Y-96178152D02*
X95021429Y-96844819D01*
X95021429Y-96273390D02*
X95069048Y-96225771D01*
X95069048Y-96225771D02*
X95164286Y-96178152D01*
X95164286Y-96178152D02*
X95307143Y-96178152D01*
X95307143Y-96178152D02*
X95402381Y-96225771D01*
X95402381Y-96225771D02*
X95450000Y-96321009D01*
X95450000Y-96321009D02*
X95450000Y-96844819D01*
X96307143Y-96797200D02*
X96211905Y-96844819D01*
X96211905Y-96844819D02*
X96021429Y-96844819D01*
X96021429Y-96844819D02*
X95926191Y-96797200D01*
X95926191Y-96797200D02*
X95878572Y-96701961D01*
X95878572Y-96701961D02*
X95878572Y-96321009D01*
X95878572Y-96321009D02*
X95926191Y-96225771D01*
X95926191Y-96225771D02*
X96021429Y-96178152D01*
X96021429Y-96178152D02*
X96211905Y-96178152D01*
X96211905Y-96178152D02*
X96307143Y-96225771D01*
X96307143Y-96225771D02*
X96354762Y-96321009D01*
X96354762Y-96321009D02*
X96354762Y-96416247D01*
X96354762Y-96416247D02*
X95878572Y-96511485D01*
D11*
X94039286Y-75763853D02*
X94325000Y-75549568D01*
X94325000Y-75549568D02*
X94610714Y-75763853D01*
X94325000Y-80035912D02*
X94325000Y-77893055D01*
X92432142Y-80450828D02*
X92432142Y-81665114D01*
X92432142Y-81665114D02*
X92503571Y-81807971D01*
X92503571Y-81807971D02*
X92575000Y-81879400D01*
X92575000Y-81879400D02*
X92717857Y-81950828D01*
X92717857Y-81950828D02*
X93003571Y-81950828D01*
X93003571Y-81950828D02*
X93146428Y-81879400D01*
X93146428Y-81879400D02*
X93217857Y-81807971D01*
X93217857Y-81807971D02*
X93289285Y-81665114D01*
X93289285Y-81665114D02*
X93289285Y-80450828D01*
X93932143Y-81879400D02*
X94146429Y-81950828D01*
X94146429Y-81950828D02*
X94503571Y-81950828D01*
X94503571Y-81950828D02*
X94646429Y-81879400D01*
X94646429Y-81879400D02*
X94717857Y-81807971D01*
X94717857Y-81807971D02*
X94789286Y-81665114D01*
X94789286Y-81665114D02*
X94789286Y-81522257D01*
X94789286Y-81522257D02*
X94717857Y-81379400D01*
X94717857Y-81379400D02*
X94646429Y-81307971D01*
X94646429Y-81307971D02*
X94503571Y-81236542D01*
X94503571Y-81236542D02*
X94217857Y-81165114D01*
X94217857Y-81165114D02*
X94075000Y-81093685D01*
X94075000Y-81093685D02*
X94003571Y-81022257D01*
X94003571Y-81022257D02*
X93932143Y-80879400D01*
X93932143Y-80879400D02*
X93932143Y-80736542D01*
X93932143Y-80736542D02*
X94003571Y-80593685D01*
X94003571Y-80593685D02*
X94075000Y-80522257D01*
X94075000Y-80522257D02*
X94217857Y-80450828D01*
X94217857Y-80450828D02*
X94575000Y-80450828D01*
X94575000Y-80450828D02*
X94789286Y-80522257D01*
X95932142Y-81165114D02*
X96146428Y-81236542D01*
X96146428Y-81236542D02*
X96217857Y-81307971D01*
X96217857Y-81307971D02*
X96289285Y-81450828D01*
X96289285Y-81450828D02*
X96289285Y-81665114D01*
X96289285Y-81665114D02*
X96217857Y-81807971D01*
X96217857Y-81807971D02*
X96146428Y-81879400D01*
X96146428Y-81879400D02*
X96003571Y-81950828D01*
X96003571Y-81950828D02*
X95432142Y-81950828D01*
X95432142Y-81950828D02*
X95432142Y-80450828D01*
X95432142Y-80450828D02*
X95932142Y-80450828D01*
X95932142Y-80450828D02*
X96075000Y-80522257D01*
X96075000Y-80522257D02*
X96146428Y-80593685D01*
X96146428Y-80593685D02*
X96217857Y-80736542D01*
X96217857Y-80736542D02*
X96217857Y-80879400D01*
X96217857Y-80879400D02*
X96146428Y-81022257D01*
X96146428Y-81022257D02*
X96075000Y-81093685D01*
X96075000Y-81093685D02*
X95932142Y-81165114D01*
X95932142Y-81165114D02*
X95432142Y-81165114D01*
X116920028Y-145118913D02*
X116920028Y-145833199D01*
X116920028Y-145833199D02*
X117634314Y-145904627D01*
X117634314Y-145904627D02*
X117562885Y-145833199D01*
X117562885Y-145833199D02*
X117491457Y-145690342D01*
X117491457Y-145690342D02*
X117491457Y-145333199D01*
X117491457Y-145333199D02*
X117562885Y-145190342D01*
X117562885Y-145190342D02*
X117634314Y-145118913D01*
X117634314Y-145118913D02*
X117777171Y-145047484D01*
X117777171Y-145047484D02*
X118134314Y-145047484D01*
X118134314Y-145047484D02*
X118277171Y-145118913D01*
X118277171Y-145118913D02*
X118348600Y-145190342D01*
X118348600Y-145190342D02*
X118420028Y-145333199D01*
X118420028Y-145333199D02*
X118420028Y-145690342D01*
X118420028Y-145690342D02*
X118348600Y-145833199D01*
X118348600Y-145833199D02*
X118277171Y-145904627D01*
X116920028Y-144618913D02*
X118420028Y-144118913D01*
X118420028Y-144118913D02*
X116920028Y-143618913D01*
D10*
X109338304Y-146150675D02*
X109338304Y-145674485D01*
X109624019Y-146245913D02*
X108624019Y-145912580D01*
X108624019Y-145912580D02*
X109624019Y-145579247D01*
X109624019Y-144722104D02*
X109624019Y-145293532D01*
X109624019Y-145007818D02*
X108624019Y-145007818D01*
X108624019Y-145007818D02*
X108766876Y-145103056D01*
X108766876Y-145103056D02*
X108862114Y-145198294D01*
X108862114Y-145198294D02*
X108909733Y-145293532D01*
X108719257Y-144341151D02*
X108671638Y-144293532D01*
X108671638Y-144293532D02*
X108624019Y-144198294D01*
X108624019Y-144198294D02*
X108624019Y-143960199D01*
X108624019Y-143960199D02*
X108671638Y-143864961D01*
X108671638Y-143864961D02*
X108719257Y-143817342D01*
X108719257Y-143817342D02*
X108814495Y-143769723D01*
X108814495Y-143769723D02*
X108909733Y-143769723D01*
X108909733Y-143769723D02*
X109052590Y-143817342D01*
X109052590Y-143817342D02*
X109624019Y-144388770D01*
X109624019Y-144388770D02*
X109624019Y-143769723D01*
X104321804Y-146150675D02*
X104321804Y-145674485D01*
X104607519Y-146245913D02*
X103607519Y-145912580D01*
X103607519Y-145912580D02*
X104607519Y-145579247D01*
X104607519Y-144722104D02*
X104607519Y-145293532D01*
X104607519Y-145007818D02*
X103607519Y-145007818D01*
X103607519Y-145007818D02*
X103750376Y-145103056D01*
X103750376Y-145103056D02*
X103845614Y-145198294D01*
X103845614Y-145198294D02*
X103893233Y-145293532D01*
X103940852Y-143864961D02*
X104607519Y-143864961D01*
X103559900Y-144103056D02*
X104274185Y-144341151D01*
X104274185Y-144341151D02*
X104274185Y-143722104D01*
D12*
X80024285Y-142143070D02*
X79952857Y-142214499D01*
X79952857Y-142214499D02*
X79738571Y-142285927D01*
X79738571Y-142285927D02*
X79595714Y-142285927D01*
X79595714Y-142285927D02*
X79381428Y-142214499D01*
X79381428Y-142214499D02*
X79238571Y-142071641D01*
X79238571Y-142071641D02*
X79167142Y-141928784D01*
X79167142Y-141928784D02*
X79095714Y-141643070D01*
X79095714Y-141643070D02*
X79095714Y-141428784D01*
X79095714Y-141428784D02*
X79167142Y-141143070D01*
X79167142Y-141143070D02*
X79238571Y-141000213D01*
X79238571Y-141000213D02*
X79381428Y-140857356D01*
X79381428Y-140857356D02*
X79595714Y-140785927D01*
X79595714Y-140785927D02*
X79738571Y-140785927D01*
X79738571Y-140785927D02*
X79952857Y-140857356D01*
X79952857Y-140857356D02*
X80024285Y-140928784D01*
X80881428Y-142285927D02*
X80738571Y-142214499D01*
X80738571Y-142214499D02*
X80667142Y-142143070D01*
X80667142Y-142143070D02*
X80595714Y-142000213D01*
X80595714Y-142000213D02*
X80595714Y-141571641D01*
X80595714Y-141571641D02*
X80667142Y-141428784D01*
X80667142Y-141428784D02*
X80738571Y-141357356D01*
X80738571Y-141357356D02*
X80881428Y-141285927D01*
X80881428Y-141285927D02*
X81095714Y-141285927D01*
X81095714Y-141285927D02*
X81238571Y-141357356D01*
X81238571Y-141357356D02*
X81310000Y-141428784D01*
X81310000Y-141428784D02*
X81381428Y-141571641D01*
X81381428Y-141571641D02*
X81381428Y-142000213D01*
X81381428Y-142000213D02*
X81310000Y-142143070D01*
X81310000Y-142143070D02*
X81238571Y-142214499D01*
X81238571Y-142214499D02*
X81095714Y-142285927D01*
X81095714Y-142285927D02*
X80881428Y-142285927D01*
X82238571Y-142285927D02*
X82095714Y-142214499D01*
X82095714Y-142214499D02*
X82024285Y-142071641D01*
X82024285Y-142071641D02*
X82024285Y-140785927D01*
X83381428Y-142214499D02*
X83238571Y-142285927D01*
X83238571Y-142285927D02*
X82952857Y-142285927D01*
X82952857Y-142285927D02*
X82809999Y-142214499D01*
X82809999Y-142214499D02*
X82738571Y-142071641D01*
X82738571Y-142071641D02*
X82738571Y-141500213D01*
X82738571Y-141500213D02*
X82809999Y-141357356D01*
X82809999Y-141357356D02*
X82952857Y-141285927D01*
X82952857Y-141285927D02*
X83238571Y-141285927D01*
X83238571Y-141285927D02*
X83381428Y-141357356D01*
X83381428Y-141357356D02*
X83452857Y-141500213D01*
X83452857Y-141500213D02*
X83452857Y-141643070D01*
X83452857Y-141643070D02*
X82738571Y-141785927D01*
X84738571Y-142214499D02*
X84595713Y-142285927D01*
X84595713Y-142285927D02*
X84309999Y-142285927D01*
X84309999Y-142285927D02*
X84167142Y-142214499D01*
X84167142Y-142214499D02*
X84095713Y-142143070D01*
X84095713Y-142143070D02*
X84024285Y-142000213D01*
X84024285Y-142000213D02*
X84024285Y-141571641D01*
X84024285Y-141571641D02*
X84095713Y-141428784D01*
X84095713Y-141428784D02*
X84167142Y-141357356D01*
X84167142Y-141357356D02*
X84309999Y-141285927D01*
X84309999Y-141285927D02*
X84595713Y-141285927D01*
X84595713Y-141285927D02*
X84738571Y-141357356D01*
X85595713Y-142285927D02*
X85452856Y-142214499D01*
X85452856Y-142214499D02*
X85381427Y-142143070D01*
X85381427Y-142143070D02*
X85309999Y-142000213D01*
X85309999Y-142000213D02*
X85309999Y-141571641D01*
X85309999Y-141571641D02*
X85381427Y-141428784D01*
X85381427Y-141428784D02*
X85452856Y-141357356D01*
X85452856Y-141357356D02*
X85595713Y-141285927D01*
X85595713Y-141285927D02*
X85809999Y-141285927D01*
X85809999Y-141285927D02*
X85952856Y-141357356D01*
X85952856Y-141357356D02*
X86024285Y-141428784D01*
X86024285Y-141428784D02*
X86095713Y-141571641D01*
X86095713Y-141571641D02*
X86095713Y-142000213D01*
X86095713Y-142000213D02*
X86024285Y-142143070D01*
X86024285Y-142143070D02*
X85952856Y-142214499D01*
X85952856Y-142214499D02*
X85809999Y-142285927D01*
X85809999Y-142285927D02*
X85595713Y-142285927D01*
X86524285Y-140785927D02*
X87024285Y-142285927D01*
X87024285Y-142285927D02*
X87524285Y-140785927D01*
X88024284Y-142285927D02*
X88024284Y-141285927D01*
X88024284Y-140785927D02*
X87952856Y-140857356D01*
X87952856Y-140857356D02*
X88024284Y-140928784D01*
X88024284Y-140928784D02*
X88095713Y-140857356D01*
X88095713Y-140857356D02*
X88024284Y-140785927D01*
X88024284Y-140785927D02*
X88024284Y-140928784D01*
X88667142Y-142214499D02*
X88809999Y-142285927D01*
X88809999Y-142285927D02*
X89095713Y-142285927D01*
X89095713Y-142285927D02*
X89238570Y-142214499D01*
X89238570Y-142214499D02*
X89309999Y-142071641D01*
X89309999Y-142071641D02*
X89309999Y-142000213D01*
X89309999Y-142000213D02*
X89238570Y-141857356D01*
X89238570Y-141857356D02*
X89095713Y-141785927D01*
X89095713Y-141785927D02*
X88881428Y-141785927D01*
X88881428Y-141785927D02*
X88738570Y-141714499D01*
X88738570Y-141714499D02*
X88667142Y-141571641D01*
X88667142Y-141571641D02*
X88667142Y-141500213D01*
X88667142Y-141500213D02*
X88738570Y-141357356D01*
X88738570Y-141357356D02*
X88881428Y-141285927D01*
X88881428Y-141285927D02*
X89095713Y-141285927D01*
X89095713Y-141285927D02*
X89238570Y-141357356D01*
X89952856Y-142285927D02*
X89952856Y-141285927D01*
X89952856Y-140785927D02*
X89881428Y-140857356D01*
X89881428Y-140857356D02*
X89952856Y-140928784D01*
X89952856Y-140928784D02*
X90024285Y-140857356D01*
X90024285Y-140857356D02*
X89952856Y-140785927D01*
X89952856Y-140785927D02*
X89952856Y-140928784D01*
X90881428Y-142285927D02*
X90738571Y-142214499D01*
X90738571Y-142214499D02*
X90667142Y-142143070D01*
X90667142Y-142143070D02*
X90595714Y-142000213D01*
X90595714Y-142000213D02*
X90595714Y-141571641D01*
X90595714Y-141571641D02*
X90667142Y-141428784D01*
X90667142Y-141428784D02*
X90738571Y-141357356D01*
X90738571Y-141357356D02*
X90881428Y-141285927D01*
X90881428Y-141285927D02*
X91095714Y-141285927D01*
X91095714Y-141285927D02*
X91238571Y-141357356D01*
X91238571Y-141357356D02*
X91310000Y-141428784D01*
X91310000Y-141428784D02*
X91381428Y-141571641D01*
X91381428Y-141571641D02*
X91381428Y-142000213D01*
X91381428Y-142000213D02*
X91310000Y-142143070D01*
X91310000Y-142143070D02*
X91238571Y-142214499D01*
X91238571Y-142214499D02*
X91095714Y-142285927D01*
X91095714Y-142285927D02*
X90881428Y-142285927D01*
X92024285Y-141285927D02*
X92024285Y-142285927D01*
X92024285Y-141428784D02*
X92095714Y-141357356D01*
X92095714Y-141357356D02*
X92238571Y-141285927D01*
X92238571Y-141285927D02*
X92452857Y-141285927D01*
X92452857Y-141285927D02*
X92595714Y-141357356D01*
X92595714Y-141357356D02*
X92667143Y-141500213D01*
X92667143Y-141500213D02*
X92667143Y-142285927D01*
X95381428Y-142285927D02*
X94881428Y-141571641D01*
X94524285Y-142285927D02*
X94524285Y-140785927D01*
X94524285Y-140785927D02*
X95095714Y-140785927D01*
X95095714Y-140785927D02*
X95238571Y-140857356D01*
X95238571Y-140857356D02*
X95310000Y-140928784D01*
X95310000Y-140928784D02*
X95381428Y-141071641D01*
X95381428Y-141071641D02*
X95381428Y-141285927D01*
X95381428Y-141285927D02*
X95310000Y-141428784D01*
X95310000Y-141428784D02*
X95238571Y-141500213D01*
X95238571Y-141500213D02*
X95095714Y-141571641D01*
X95095714Y-141571641D02*
X94524285Y-141571641D01*
X96595714Y-142214499D02*
X96452857Y-142285927D01*
X96452857Y-142285927D02*
X96167143Y-142285927D01*
X96167143Y-142285927D02*
X96024285Y-142214499D01*
X96024285Y-142214499D02*
X95952857Y-142071641D01*
X95952857Y-142071641D02*
X95952857Y-141500213D01*
X95952857Y-141500213D02*
X96024285Y-141357356D01*
X96024285Y-141357356D02*
X96167143Y-141285927D01*
X96167143Y-141285927D02*
X96452857Y-141285927D01*
X96452857Y-141285927D02*
X96595714Y-141357356D01*
X96595714Y-141357356D02*
X96667143Y-141500213D01*
X96667143Y-141500213D02*
X96667143Y-141643070D01*
X96667143Y-141643070D02*
X95952857Y-141785927D01*
X97309999Y-141285927D02*
X97309999Y-142785927D01*
X97309999Y-141357356D02*
X97452857Y-141285927D01*
X97452857Y-141285927D02*
X97738571Y-141285927D01*
X97738571Y-141285927D02*
X97881428Y-141357356D01*
X97881428Y-141357356D02*
X97952857Y-141428784D01*
X97952857Y-141428784D02*
X98024285Y-141571641D01*
X98024285Y-141571641D02*
X98024285Y-142000213D01*
X98024285Y-142000213D02*
X97952857Y-142143070D01*
X97952857Y-142143070D02*
X97881428Y-142214499D01*
X97881428Y-142214499D02*
X97738571Y-142285927D01*
X97738571Y-142285927D02*
X97452857Y-142285927D01*
X97452857Y-142285927D02*
X97309999Y-142214499D01*
X98667142Y-142285927D02*
X98667142Y-141285927D01*
X98667142Y-141571641D02*
X98738571Y-141428784D01*
X98738571Y-141428784D02*
X98810000Y-141357356D01*
X98810000Y-141357356D02*
X98952857Y-141285927D01*
X98952857Y-141285927D02*
X99095714Y-141285927D01*
X99809999Y-142285927D02*
X99667142Y-142214499D01*
X99667142Y-142214499D02*
X99595713Y-142143070D01*
X99595713Y-142143070D02*
X99524285Y-142000213D01*
X99524285Y-142000213D02*
X99524285Y-141571641D01*
X99524285Y-141571641D02*
X99595713Y-141428784D01*
X99595713Y-141428784D02*
X99667142Y-141357356D01*
X99667142Y-141357356D02*
X99809999Y-141285927D01*
X99809999Y-141285927D02*
X100024285Y-141285927D01*
X100024285Y-141285927D02*
X100167142Y-141357356D01*
X100167142Y-141357356D02*
X100238571Y-141428784D01*
X100238571Y-141428784D02*
X100309999Y-141571641D01*
X100309999Y-141571641D02*
X100309999Y-142000213D01*
X100309999Y-142000213D02*
X100238571Y-142143070D01*
X100238571Y-142143070D02*
X100167142Y-142214499D01*
X100167142Y-142214499D02*
X100024285Y-142285927D01*
X100024285Y-142285927D02*
X99809999Y-142285927D01*
X101595714Y-141285927D02*
X101595714Y-142500213D01*
X101595714Y-142500213D02*
X101524285Y-142643070D01*
X101524285Y-142643070D02*
X101452856Y-142714499D01*
X101452856Y-142714499D02*
X101309999Y-142785927D01*
X101309999Y-142785927D02*
X101095714Y-142785927D01*
X101095714Y-142785927D02*
X100952856Y-142714499D01*
X101595714Y-142214499D02*
X101452856Y-142285927D01*
X101452856Y-142285927D02*
X101167142Y-142285927D01*
X101167142Y-142285927D02*
X101024285Y-142214499D01*
X101024285Y-142214499D02*
X100952856Y-142143070D01*
X100952856Y-142143070D02*
X100881428Y-142000213D01*
X100881428Y-142000213D02*
X100881428Y-141571641D01*
X100881428Y-141571641D02*
X100952856Y-141428784D01*
X100952856Y-141428784D02*
X101024285Y-141357356D01*
X101024285Y-141357356D02*
X101167142Y-141285927D01*
X101167142Y-141285927D02*
X101452856Y-141285927D01*
X101452856Y-141285927D02*
X101595714Y-141357356D01*
X102309999Y-142285927D02*
X102309999Y-141285927D01*
X102309999Y-141571641D02*
X102381428Y-141428784D01*
X102381428Y-141428784D02*
X102452857Y-141357356D01*
X102452857Y-141357356D02*
X102595714Y-141285927D01*
X102595714Y-141285927D02*
X102738571Y-141285927D01*
X103881428Y-142285927D02*
X103881428Y-141500213D01*
X103881428Y-141500213D02*
X103809999Y-141357356D01*
X103809999Y-141357356D02*
X103667142Y-141285927D01*
X103667142Y-141285927D02*
X103381428Y-141285927D01*
X103381428Y-141285927D02*
X103238570Y-141357356D01*
X103881428Y-142214499D02*
X103738570Y-142285927D01*
X103738570Y-142285927D02*
X103381428Y-142285927D01*
X103381428Y-142285927D02*
X103238570Y-142214499D01*
X103238570Y-142214499D02*
X103167142Y-142071641D01*
X103167142Y-142071641D02*
X103167142Y-141928784D01*
X103167142Y-141928784D02*
X103238570Y-141785927D01*
X103238570Y-141785927D02*
X103381428Y-141714499D01*
X103381428Y-141714499D02*
X103738570Y-141714499D01*
X103738570Y-141714499D02*
X103881428Y-141643070D01*
X104595713Y-142285927D02*
X104595713Y-141285927D01*
X104595713Y-141428784D02*
X104667142Y-141357356D01*
X104667142Y-141357356D02*
X104809999Y-141285927D01*
X104809999Y-141285927D02*
X105024285Y-141285927D01*
X105024285Y-141285927D02*
X105167142Y-141357356D01*
X105167142Y-141357356D02*
X105238571Y-141500213D01*
X105238571Y-141500213D02*
X105238571Y-142285927D01*
X105238571Y-141500213D02*
X105309999Y-141357356D01*
X105309999Y-141357356D02*
X105452856Y-141285927D01*
X105452856Y-141285927D02*
X105667142Y-141285927D01*
X105667142Y-141285927D02*
X105809999Y-141357356D01*
X105809999Y-141357356D02*
X105881428Y-141500213D01*
X105881428Y-141500213D02*
X105881428Y-142285927D01*
X106595713Y-142285927D02*
X106595713Y-141285927D01*
X106595713Y-141428784D02*
X106667142Y-141357356D01*
X106667142Y-141357356D02*
X106809999Y-141285927D01*
X106809999Y-141285927D02*
X107024285Y-141285927D01*
X107024285Y-141285927D02*
X107167142Y-141357356D01*
X107167142Y-141357356D02*
X107238571Y-141500213D01*
X107238571Y-141500213D02*
X107238571Y-142285927D01*
X107238571Y-141500213D02*
X107309999Y-141357356D01*
X107309999Y-141357356D02*
X107452856Y-141285927D01*
X107452856Y-141285927D02*
X107667142Y-141285927D01*
X107667142Y-141285927D02*
X107809999Y-141357356D01*
X107809999Y-141357356D02*
X107881428Y-141500213D01*
X107881428Y-141500213D02*
X107881428Y-142285927D01*
X109238571Y-142285927D02*
X109238571Y-141500213D01*
X109238571Y-141500213D02*
X109167142Y-141357356D01*
X109167142Y-141357356D02*
X109024285Y-141285927D01*
X109024285Y-141285927D02*
X108738571Y-141285927D01*
X108738571Y-141285927D02*
X108595713Y-141357356D01*
X109238571Y-142214499D02*
X109095713Y-142285927D01*
X109095713Y-142285927D02*
X108738571Y-142285927D01*
X108738571Y-142285927D02*
X108595713Y-142214499D01*
X108595713Y-142214499D02*
X108524285Y-142071641D01*
X108524285Y-142071641D02*
X108524285Y-141928784D01*
X108524285Y-141928784D02*
X108595713Y-141785927D01*
X108595713Y-141785927D02*
X108738571Y-141714499D01*
X108738571Y-141714499D02*
X109095713Y-141714499D01*
X109095713Y-141714499D02*
X109238571Y-141643070D01*
X109952856Y-142285927D02*
X109952856Y-140785927D01*
X109952856Y-141357356D02*
X110095714Y-141285927D01*
X110095714Y-141285927D02*
X110381428Y-141285927D01*
X110381428Y-141285927D02*
X110524285Y-141357356D01*
X110524285Y-141357356D02*
X110595714Y-141428784D01*
X110595714Y-141428784D02*
X110667142Y-141571641D01*
X110667142Y-141571641D02*
X110667142Y-142000213D01*
X110667142Y-142000213D02*
X110595714Y-142143070D01*
X110595714Y-142143070D02*
X110524285Y-142214499D01*
X110524285Y-142214499D02*
X110381428Y-142285927D01*
X110381428Y-142285927D02*
X110095714Y-142285927D01*
X110095714Y-142285927D02*
X109952856Y-142214499D01*
X111524285Y-142285927D02*
X111381428Y-142214499D01*
X111381428Y-142214499D02*
X111309999Y-142071641D01*
X111309999Y-142071641D02*
X111309999Y-140785927D01*
X112667142Y-142214499D02*
X112524285Y-142285927D01*
X112524285Y-142285927D02*
X112238571Y-142285927D01*
X112238571Y-142285927D02*
X112095713Y-142214499D01*
X112095713Y-142214499D02*
X112024285Y-142071641D01*
X112024285Y-142071641D02*
X112024285Y-141500213D01*
X112024285Y-141500213D02*
X112095713Y-141357356D01*
X112095713Y-141357356D02*
X112238571Y-141285927D01*
X112238571Y-141285927D02*
X112524285Y-141285927D01*
X112524285Y-141285927D02*
X112667142Y-141357356D01*
X112667142Y-141357356D02*
X112738571Y-141500213D01*
X112738571Y-141500213D02*
X112738571Y-141643070D01*
X112738571Y-141643070D02*
X112024285Y-141785927D01*
X115381427Y-142143070D02*
X115309999Y-142214499D01*
X115309999Y-142214499D02*
X115095713Y-142285927D01*
X115095713Y-142285927D02*
X114952856Y-142285927D01*
X114952856Y-142285927D02*
X114738570Y-142214499D01*
X114738570Y-142214499D02*
X114595713Y-142071641D01*
X114595713Y-142071641D02*
X114524284Y-141928784D01*
X114524284Y-141928784D02*
X114452856Y-141643070D01*
X114452856Y-141643070D02*
X114452856Y-141428784D01*
X114452856Y-141428784D02*
X114524284Y-141143070D01*
X114524284Y-141143070D02*
X114595713Y-141000213D01*
X114595713Y-141000213D02*
X114738570Y-140857356D01*
X114738570Y-140857356D02*
X114952856Y-140785927D01*
X114952856Y-140785927D02*
X115095713Y-140785927D01*
X115095713Y-140785927D02*
X115309999Y-140857356D01*
X115309999Y-140857356D02*
X115381427Y-140928784D01*
X116667142Y-142285927D02*
X116667142Y-141500213D01*
X116667142Y-141500213D02*
X116595713Y-141357356D01*
X116595713Y-141357356D02*
X116452856Y-141285927D01*
X116452856Y-141285927D02*
X116167142Y-141285927D01*
X116167142Y-141285927D02*
X116024284Y-141357356D01*
X116667142Y-142214499D02*
X116524284Y-142285927D01*
X116524284Y-142285927D02*
X116167142Y-142285927D01*
X116167142Y-142285927D02*
X116024284Y-142214499D01*
X116024284Y-142214499D02*
X115952856Y-142071641D01*
X115952856Y-142071641D02*
X115952856Y-141928784D01*
X115952856Y-141928784D02*
X116024284Y-141785927D01*
X116024284Y-141785927D02*
X116167142Y-141714499D01*
X116167142Y-141714499D02*
X116524284Y-141714499D01*
X116524284Y-141714499D02*
X116667142Y-141643070D01*
X117381427Y-142285927D02*
X117381427Y-141285927D01*
X117381427Y-141571641D02*
X117452856Y-141428784D01*
X117452856Y-141428784D02*
X117524285Y-141357356D01*
X117524285Y-141357356D02*
X117667142Y-141285927D01*
X117667142Y-141285927D02*
X117809999Y-141285927D01*
X118952856Y-142285927D02*
X118952856Y-140785927D01*
X118952856Y-142214499D02*
X118809998Y-142285927D01*
X118809998Y-142285927D02*
X118524284Y-142285927D01*
X118524284Y-142285927D02*
X118381427Y-142214499D01*
X118381427Y-142214499D02*
X118309998Y-142143070D01*
X118309998Y-142143070D02*
X118238570Y-142000213D01*
X118238570Y-142000213D02*
X118238570Y-141571641D01*
X118238570Y-141571641D02*
X118309998Y-141428784D01*
X118309998Y-141428784D02*
X118381427Y-141357356D01*
X118381427Y-141357356D02*
X118524284Y-141285927D01*
X118524284Y-141285927D02*
X118809998Y-141285927D01*
X118809998Y-141285927D02*
X118952856Y-141357356D01*
D10*
X91907519Y-146142794D02*
X90907519Y-146142794D01*
X90907519Y-146142794D02*
X90907519Y-145904699D01*
X90907519Y-145904699D02*
X90955138Y-145761842D01*
X90955138Y-145761842D02*
X91050376Y-145666604D01*
X91050376Y-145666604D02*
X91145614Y-145618985D01*
X91145614Y-145618985D02*
X91336090Y-145571366D01*
X91336090Y-145571366D02*
X91478947Y-145571366D01*
X91478947Y-145571366D02*
X91669423Y-145618985D01*
X91669423Y-145618985D02*
X91764661Y-145666604D01*
X91764661Y-145666604D02*
X91859900Y-145761842D01*
X91859900Y-145761842D02*
X91907519Y-145904699D01*
X91907519Y-145904699D02*
X91907519Y-146142794D01*
X90907519Y-144714223D02*
X90907519Y-144904699D01*
X90907519Y-144904699D02*
X90955138Y-144999937D01*
X90955138Y-144999937D02*
X91002757Y-145047556D01*
X91002757Y-145047556D02*
X91145614Y-145142794D01*
X91145614Y-145142794D02*
X91336090Y-145190413D01*
X91336090Y-145190413D02*
X91717042Y-145190413D01*
X91717042Y-145190413D02*
X91812280Y-145142794D01*
X91812280Y-145142794D02*
X91859900Y-145095175D01*
X91859900Y-145095175D02*
X91907519Y-144999937D01*
X91907519Y-144999937D02*
X91907519Y-144809461D01*
X91907519Y-144809461D02*
X91859900Y-144714223D01*
X91859900Y-144714223D02*
X91812280Y-144666604D01*
X91812280Y-144666604D02*
X91717042Y-144618985D01*
X91717042Y-144618985D02*
X91478947Y-144618985D01*
X91478947Y-144618985D02*
X91383709Y-144666604D01*
X91383709Y-144666604D02*
X91336090Y-144714223D01*
X91336090Y-144714223D02*
X91288471Y-144809461D01*
X91288471Y-144809461D02*
X91288471Y-144999937D01*
X91288471Y-144999937D02*
X91336090Y-145095175D01*
X91336090Y-145095175D02*
X91383709Y-145142794D01*
X91383709Y-145142794D02*
X91478947Y-145190413D01*
D13*
X81214990Y-146026022D02*
X81214990Y-145659355D01*
X81791180Y-145502212D02*
X81791180Y-146026022D01*
X81791180Y-146026022D02*
X80691180Y-146026022D01*
X80691180Y-146026022D02*
X80691180Y-145502212D01*
X81686419Y-144402212D02*
X81738800Y-144454593D01*
X81738800Y-144454593D02*
X81791180Y-144611736D01*
X81791180Y-144611736D02*
X81791180Y-144716498D01*
X81791180Y-144716498D02*
X81738800Y-144873641D01*
X81738800Y-144873641D02*
X81634038Y-144978403D01*
X81634038Y-144978403D02*
X81529276Y-145030784D01*
X81529276Y-145030784D02*
X81319752Y-145083165D01*
X81319752Y-145083165D02*
X81162609Y-145083165D01*
X81162609Y-145083165D02*
X80953085Y-145030784D01*
X80953085Y-145030784D02*
X80848323Y-144978403D01*
X80848323Y-144978403D02*
X80743561Y-144873641D01*
X80743561Y-144873641D02*
X80691180Y-144716498D01*
X80691180Y-144716498D02*
X80691180Y-144611736D01*
X80691180Y-144611736D02*
X80743561Y-144454593D01*
X80743561Y-144454593D02*
X80795942Y-144402212D01*
X80691180Y-143721260D02*
X80691180Y-143616498D01*
X80691180Y-143616498D02*
X80743561Y-143511736D01*
X80743561Y-143511736D02*
X80795942Y-143459355D01*
X80795942Y-143459355D02*
X80900704Y-143406974D01*
X80900704Y-143406974D02*
X81110228Y-143354593D01*
X81110228Y-143354593D02*
X81372133Y-143354593D01*
X81372133Y-143354593D02*
X81581657Y-143406974D01*
X81581657Y-143406974D02*
X81686419Y-143459355D01*
X81686419Y-143459355D02*
X81738800Y-143511736D01*
X81738800Y-143511736D02*
X81791180Y-143616498D01*
X81791180Y-143616498D02*
X81791180Y-143721260D01*
X81791180Y-143721260D02*
X81738800Y-143826022D01*
X81738800Y-143826022D02*
X81686419Y-143878403D01*
X81686419Y-143878403D02*
X81581657Y-143930784D01*
X81581657Y-143930784D02*
X81372133Y-143983165D01*
X81372133Y-143983165D02*
X81110228Y-143983165D01*
X81110228Y-143983165D02*
X80900704Y-143930784D01*
X80900704Y-143930784D02*
X80795942Y-143878403D01*
X80795942Y-143878403D02*
X80743561Y-143826022D01*
X80743561Y-143826022D02*
X80691180Y-143721260D01*
X80385800Y-146177927D02*
X80385800Y-143255070D01*
D10*
X89367519Y-146142794D02*
X88367519Y-146142794D01*
X88367519Y-146142794D02*
X88367519Y-145904699D01*
X88367519Y-145904699D02*
X88415138Y-145761842D01*
X88415138Y-145761842D02*
X88510376Y-145666604D01*
X88510376Y-145666604D02*
X88605614Y-145618985D01*
X88605614Y-145618985D02*
X88796090Y-145571366D01*
X88796090Y-145571366D02*
X88938947Y-145571366D01*
X88938947Y-145571366D02*
X89129423Y-145618985D01*
X89129423Y-145618985D02*
X89224661Y-145666604D01*
X89224661Y-145666604D02*
X89319900Y-145761842D01*
X89319900Y-145761842D02*
X89367519Y-145904699D01*
X89367519Y-145904699D02*
X89367519Y-146142794D01*
X88367519Y-144666604D02*
X88367519Y-145142794D01*
X88367519Y-145142794D02*
X88843709Y-145190413D01*
X88843709Y-145190413D02*
X88796090Y-145142794D01*
X88796090Y-145142794D02*
X88748471Y-145047556D01*
X88748471Y-145047556D02*
X88748471Y-144809461D01*
X88748471Y-144809461D02*
X88796090Y-144714223D01*
X88796090Y-144714223D02*
X88843709Y-144666604D01*
X88843709Y-144666604D02*
X88938947Y-144618985D01*
X88938947Y-144618985D02*
X89177042Y-144618985D01*
X89177042Y-144618985D02*
X89272280Y-144666604D01*
X89272280Y-144666604D02*
X89319900Y-144714223D01*
X89319900Y-144714223D02*
X89367519Y-144809461D01*
X89367519Y-144809461D02*
X89367519Y-145047556D01*
X89367519Y-145047556D02*
X89319900Y-145142794D01*
X89319900Y-145142794D02*
X89272280Y-145190413D01*
D13*
X106678490Y-146010951D02*
X106678490Y-145644284D01*
X107254680Y-145487141D02*
X107254680Y-146010951D01*
X107254680Y-146010951D02*
X106154680Y-146010951D01*
X106154680Y-146010951D02*
X106154680Y-145487141D01*
X106940395Y-145068094D02*
X106940395Y-144544284D01*
X107254680Y-145172856D02*
X106154680Y-144806189D01*
X106154680Y-144806189D02*
X107254680Y-144439522D01*
X106154680Y-143863332D02*
X106154680Y-143758570D01*
X106154680Y-143758570D02*
X106207061Y-143653808D01*
X106207061Y-143653808D02*
X106259442Y-143601427D01*
X106259442Y-143601427D02*
X106364204Y-143549046D01*
X106364204Y-143549046D02*
X106573728Y-143496665D01*
X106573728Y-143496665D02*
X106835633Y-143496665D01*
X106835633Y-143496665D02*
X107045157Y-143549046D01*
X107045157Y-143549046D02*
X107149919Y-143601427D01*
X107149919Y-143601427D02*
X107202300Y-143653808D01*
X107202300Y-143653808D02*
X107254680Y-143758570D01*
X107254680Y-143758570D02*
X107254680Y-143863332D01*
X107254680Y-143863332D02*
X107202300Y-143968094D01*
X107202300Y-143968094D02*
X107149919Y-144020475D01*
X107149919Y-144020475D02*
X107045157Y-144072856D01*
X107045157Y-144072856D02*
X106835633Y-144125237D01*
X106835633Y-144125237D02*
X106573728Y-144125237D01*
X106573728Y-144125237D02*
X106364204Y-144072856D01*
X106364204Y-144072856D02*
X106259442Y-144020475D01*
X106259442Y-144020475D02*
X106207061Y-143968094D01*
X106207061Y-143968094D02*
X106154680Y-143863332D01*
X105849300Y-146162856D02*
X105849300Y-143397142D01*
D10*
X114481804Y-146118985D02*
X114481804Y-145642795D01*
X114767519Y-146214223D02*
X113767519Y-145880890D01*
X113767519Y-145880890D02*
X114767519Y-145547557D01*
X114196090Y-145071366D02*
X114148471Y-145166604D01*
X114148471Y-145166604D02*
X114100852Y-145214223D01*
X114100852Y-145214223D02*
X114005614Y-145261842D01*
X114005614Y-145261842D02*
X113957995Y-145261842D01*
X113957995Y-145261842D02*
X113862757Y-145214223D01*
X113862757Y-145214223D02*
X113815138Y-145166604D01*
X113815138Y-145166604D02*
X113767519Y-145071366D01*
X113767519Y-145071366D02*
X113767519Y-144880890D01*
X113767519Y-144880890D02*
X113815138Y-144785652D01*
X113815138Y-144785652D02*
X113862757Y-144738033D01*
X113862757Y-144738033D02*
X113957995Y-144690414D01*
X113957995Y-144690414D02*
X114005614Y-144690414D01*
X114005614Y-144690414D02*
X114100852Y-144738033D01*
X114100852Y-144738033D02*
X114148471Y-144785652D01*
X114148471Y-144785652D02*
X114196090Y-144880890D01*
X114196090Y-144880890D02*
X114196090Y-145071366D01*
X114196090Y-145071366D02*
X114243709Y-145166604D01*
X114243709Y-145166604D02*
X114291328Y-145214223D01*
X114291328Y-145214223D02*
X114386566Y-145261842D01*
X114386566Y-145261842D02*
X114577042Y-145261842D01*
X114577042Y-145261842D02*
X114672280Y-145214223D01*
X114672280Y-145214223D02*
X114719900Y-145166604D01*
X114719900Y-145166604D02*
X114767519Y-145071366D01*
X114767519Y-145071366D02*
X114767519Y-144880890D01*
X114767519Y-144880890D02*
X114719900Y-144785652D01*
X114719900Y-144785652D02*
X114672280Y-144738033D01*
X114672280Y-144738033D02*
X114577042Y-144690414D01*
X114577042Y-144690414D02*
X114386566Y-144690414D01*
X114386566Y-144690414D02*
X114291328Y-144738033D01*
X114291328Y-144738033D02*
X114243709Y-144785652D01*
X114243709Y-144785652D02*
X114196090Y-144880890D01*
D13*
X101649289Y-145999832D02*
X101649289Y-145633165D01*
X102225479Y-145476022D02*
X102225479Y-145999832D01*
X102225479Y-145999832D02*
X101125479Y-145999832D01*
X101125479Y-145999832D02*
X101125479Y-145476022D01*
X101596908Y-144847451D02*
X101544527Y-144952213D01*
X101544527Y-144952213D02*
X101492146Y-145004594D01*
X101492146Y-145004594D02*
X101387384Y-145056975D01*
X101387384Y-145056975D02*
X101335003Y-145056975D01*
X101335003Y-145056975D02*
X101230241Y-145004594D01*
X101230241Y-145004594D02*
X101177860Y-144952213D01*
X101177860Y-144952213D02*
X101125479Y-144847451D01*
X101125479Y-144847451D02*
X101125479Y-144637927D01*
X101125479Y-144637927D02*
X101177860Y-144533165D01*
X101177860Y-144533165D02*
X101230241Y-144480784D01*
X101230241Y-144480784D02*
X101335003Y-144428403D01*
X101335003Y-144428403D02*
X101387384Y-144428403D01*
X101387384Y-144428403D02*
X101492146Y-144480784D01*
X101492146Y-144480784D02*
X101544527Y-144533165D01*
X101544527Y-144533165D02*
X101596908Y-144637927D01*
X101596908Y-144637927D02*
X101596908Y-144847451D01*
X101596908Y-144847451D02*
X101649289Y-144952213D01*
X101649289Y-144952213D02*
X101701670Y-145004594D01*
X101701670Y-145004594D02*
X101806432Y-145056975D01*
X101806432Y-145056975D02*
X102015956Y-145056975D01*
X102015956Y-145056975D02*
X102120718Y-145004594D01*
X102120718Y-145004594D02*
X102173099Y-144952213D01*
X102173099Y-144952213D02*
X102225479Y-144847451D01*
X102225479Y-144847451D02*
X102225479Y-144637927D01*
X102225479Y-144637927D02*
X102173099Y-144533165D01*
X102173099Y-144533165D02*
X102120718Y-144480784D01*
X102120718Y-144480784D02*
X102015956Y-144428403D01*
X102015956Y-144428403D02*
X101806432Y-144428403D01*
X101806432Y-144428403D02*
X101701670Y-144480784D01*
X101701670Y-144480784D02*
X101649289Y-144533165D01*
X101649289Y-144533165D02*
X101596908Y-144637927D01*
X101125479Y-143747451D02*
X101125479Y-143642689D01*
X101125479Y-143642689D02*
X101177860Y-143537927D01*
X101177860Y-143537927D02*
X101230241Y-143485546D01*
X101230241Y-143485546D02*
X101335003Y-143433165D01*
X101335003Y-143433165D02*
X101544527Y-143380784D01*
X101544527Y-143380784D02*
X101806432Y-143380784D01*
X101806432Y-143380784D02*
X102015956Y-143433165D01*
X102015956Y-143433165D02*
X102120718Y-143485546D01*
X102120718Y-143485546D02*
X102173099Y-143537927D01*
X102173099Y-143537927D02*
X102225479Y-143642689D01*
X102225479Y-143642689D02*
X102225479Y-143747451D01*
X102225479Y-143747451D02*
X102173099Y-143852213D01*
X102173099Y-143852213D02*
X102120718Y-143904594D01*
X102120718Y-143904594D02*
X102015956Y-143956975D01*
X102015956Y-143956975D02*
X101806432Y-144009356D01*
X101806432Y-144009356D02*
X101544527Y-144009356D01*
X101544527Y-144009356D02*
X101335003Y-143956975D01*
X101335003Y-143956975D02*
X101230241Y-143904594D01*
X101230241Y-143904594D02*
X101177860Y-143852213D01*
X101177860Y-143852213D02*
X101125479Y-143747451D01*
X100820099Y-146151737D02*
X100820099Y-143281261D01*
D10*
X96701804Y-146150675D02*
X96701804Y-145674485D01*
X96987519Y-146245913D02*
X95987519Y-145912580D01*
X95987519Y-145912580D02*
X96987519Y-145579247D01*
X96987519Y-144722104D02*
X96987519Y-145293532D01*
X96987519Y-145007818D02*
X95987519Y-145007818D01*
X95987519Y-145007818D02*
X96130376Y-145103056D01*
X96130376Y-145103056D02*
X96225614Y-145198294D01*
X96225614Y-145198294D02*
X96273233Y-145293532D01*
X96987519Y-143769723D02*
X96987519Y-144341151D01*
X96987519Y-144055437D02*
X95987519Y-144055437D01*
X95987519Y-144055437D02*
X96130376Y-144150675D01*
X96130376Y-144150675D02*
X96225614Y-144245913D01*
X96225614Y-144245913D02*
X96273233Y-144341151D01*
X99241804Y-146150675D02*
X99241804Y-145674485D01*
X99527519Y-146245913D02*
X98527519Y-145912580D01*
X98527519Y-145912580D02*
X99527519Y-145579247D01*
X99527519Y-144722104D02*
X99527519Y-145293532D01*
X99527519Y-145007818D02*
X98527519Y-145007818D01*
X98527519Y-145007818D02*
X98670376Y-145103056D01*
X98670376Y-145103056D02*
X98765614Y-145198294D01*
X98765614Y-145198294D02*
X98813233Y-145293532D01*
X98527519Y-144103056D02*
X98527519Y-144007818D01*
X98527519Y-144007818D02*
X98575138Y-143912580D01*
X98575138Y-143912580D02*
X98622757Y-143864961D01*
X98622757Y-143864961D02*
X98717995Y-143817342D01*
X98717995Y-143817342D02*
X98908471Y-143769723D01*
X98908471Y-143769723D02*
X99146566Y-143769723D01*
X99146566Y-143769723D02*
X99337042Y-143817342D01*
X99337042Y-143817342D02*
X99432280Y-143864961D01*
X99432280Y-143864961D02*
X99479900Y-143912580D01*
X99479900Y-143912580D02*
X99527519Y-144007818D01*
X99527519Y-144007818D02*
X99527519Y-144103056D01*
X99527519Y-144103056D02*
X99479900Y-144198294D01*
X99479900Y-144198294D02*
X99432280Y-144245913D01*
X99432280Y-144245913D02*
X99337042Y-144293532D01*
X99337042Y-144293532D02*
X99146566Y-144341151D01*
X99146566Y-144341151D02*
X98908471Y-144341151D01*
X98908471Y-144341151D02*
X98717995Y-144293532D01*
X98717995Y-144293532D02*
X98622757Y-144245913D01*
X98622757Y-144245913D02*
X98575138Y-144198294D01*
X98575138Y-144198294D02*
X98527519Y-144103056D01*
X84287519Y-146142794D02*
X83287519Y-146142794D01*
X83287519Y-146142794D02*
X83287519Y-145904699D01*
X83287519Y-145904699D02*
X83335138Y-145761842D01*
X83335138Y-145761842D02*
X83430376Y-145666604D01*
X83430376Y-145666604D02*
X83525614Y-145618985D01*
X83525614Y-145618985D02*
X83716090Y-145571366D01*
X83716090Y-145571366D02*
X83858947Y-145571366D01*
X83858947Y-145571366D02*
X84049423Y-145618985D01*
X84049423Y-145618985D02*
X84144661Y-145666604D01*
X84144661Y-145666604D02*
X84239900Y-145761842D01*
X84239900Y-145761842D02*
X84287519Y-145904699D01*
X84287519Y-145904699D02*
X84287519Y-146142794D01*
X83287519Y-145238032D02*
X83287519Y-144618985D01*
X83287519Y-144618985D02*
X83668471Y-144952318D01*
X83668471Y-144952318D02*
X83668471Y-144809461D01*
X83668471Y-144809461D02*
X83716090Y-144714223D01*
X83716090Y-144714223D02*
X83763709Y-144666604D01*
X83763709Y-144666604D02*
X83858947Y-144618985D01*
X83858947Y-144618985D02*
X84097042Y-144618985D01*
X84097042Y-144618985D02*
X84192280Y-144666604D01*
X84192280Y-144666604D02*
X84239900Y-144714223D01*
X84239900Y-144714223D02*
X84287519Y-144809461D01*
X84287519Y-144809461D02*
X84287519Y-145095175D01*
X84287519Y-145095175D02*
X84239900Y-145190413D01*
X84239900Y-145190413D02*
X84192280Y-145238032D01*
X86827519Y-146142794D02*
X85827519Y-146142794D01*
X85827519Y-146142794D02*
X85827519Y-145904699D01*
X85827519Y-145904699D02*
X85875138Y-145761842D01*
X85875138Y-145761842D02*
X85970376Y-145666604D01*
X85970376Y-145666604D02*
X86065614Y-145618985D01*
X86065614Y-145618985D02*
X86256090Y-145571366D01*
X86256090Y-145571366D02*
X86398947Y-145571366D01*
X86398947Y-145571366D02*
X86589423Y-145618985D01*
X86589423Y-145618985D02*
X86684661Y-145666604D01*
X86684661Y-145666604D02*
X86779900Y-145761842D01*
X86779900Y-145761842D02*
X86827519Y-145904699D01*
X86827519Y-145904699D02*
X86827519Y-146142794D01*
X86160852Y-144714223D02*
X86827519Y-144714223D01*
X85779900Y-144952318D02*
X86494185Y-145190413D01*
X86494185Y-145190413D02*
X86494185Y-144571366D01*
X94511019Y-146142794D02*
X93511019Y-146142794D01*
X93511019Y-146142794D02*
X93511019Y-145904699D01*
X93511019Y-145904699D02*
X93558638Y-145761842D01*
X93558638Y-145761842D02*
X93653876Y-145666604D01*
X93653876Y-145666604D02*
X93749114Y-145618985D01*
X93749114Y-145618985D02*
X93939590Y-145571366D01*
X93939590Y-145571366D02*
X94082447Y-145571366D01*
X94082447Y-145571366D02*
X94272923Y-145618985D01*
X94272923Y-145618985D02*
X94368161Y-145666604D01*
X94368161Y-145666604D02*
X94463400Y-145761842D01*
X94463400Y-145761842D02*
X94511019Y-145904699D01*
X94511019Y-145904699D02*
X94511019Y-146142794D01*
X93511019Y-145238032D02*
X93511019Y-144571366D01*
X93511019Y-144571366D02*
X94511019Y-144999937D01*
X111941804Y-146118985D02*
X111941804Y-145642795D01*
X112227519Y-146214223D02*
X111227519Y-145880890D01*
X111227519Y-145880890D02*
X112227519Y-145547557D01*
X112227519Y-145166604D02*
X112227519Y-144976128D01*
X112227519Y-144976128D02*
X112179900Y-144880890D01*
X112179900Y-144880890D02*
X112132280Y-144833271D01*
X112132280Y-144833271D02*
X111989423Y-144738033D01*
X111989423Y-144738033D02*
X111798947Y-144690414D01*
X111798947Y-144690414D02*
X111417995Y-144690414D01*
X111417995Y-144690414D02*
X111322757Y-144738033D01*
X111322757Y-144738033D02*
X111275138Y-144785652D01*
X111275138Y-144785652D02*
X111227519Y-144880890D01*
X111227519Y-144880890D02*
X111227519Y-145071366D01*
X111227519Y-145071366D02*
X111275138Y-145166604D01*
X111275138Y-145166604D02*
X111322757Y-145214223D01*
X111322757Y-145214223D02*
X111417995Y-145261842D01*
X111417995Y-145261842D02*
X111656090Y-145261842D01*
X111656090Y-145261842D02*
X111751328Y-145214223D01*
X111751328Y-145214223D02*
X111798947Y-145166604D01*
X111798947Y-145166604D02*
X111846566Y-145071366D01*
X111846566Y-145071366D02*
X111846566Y-144880890D01*
X111846566Y-144880890D02*
X111798947Y-144785652D01*
X111798947Y-144785652D02*
X111751328Y-144738033D01*
X111751328Y-144738033D02*
X111656090Y-144690414D01*
X111791667Y-72057200D02*
X111934524Y-72104819D01*
X111934524Y-72104819D02*
X112172619Y-72104819D01*
X112172619Y-72104819D02*
X112267857Y-72057200D01*
X112267857Y-72057200D02*
X112315476Y-72009580D01*
X112315476Y-72009580D02*
X112363095Y-71914342D01*
X112363095Y-71914342D02*
X112363095Y-71819104D01*
X112363095Y-71819104D02*
X112315476Y-71723866D01*
X112315476Y-71723866D02*
X112267857Y-71676247D01*
X112267857Y-71676247D02*
X112172619Y-71628628D01*
X112172619Y-71628628D02*
X111982143Y-71581009D01*
X111982143Y-71581009D02*
X111886905Y-71533390D01*
X111886905Y-71533390D02*
X111839286Y-71485771D01*
X111839286Y-71485771D02*
X111791667Y-71390533D01*
X111791667Y-71390533D02*
X111791667Y-71295295D01*
X111791667Y-71295295D02*
X111839286Y-71200057D01*
X111839286Y-71200057D02*
X111886905Y-71152438D01*
X111886905Y-71152438D02*
X111982143Y-71104819D01*
X111982143Y-71104819D02*
X112220238Y-71104819D01*
X112220238Y-71104819D02*
X112363095Y-71152438D01*
X112696429Y-71104819D02*
X112934524Y-72104819D01*
X112934524Y-72104819D02*
X113125000Y-71390533D01*
X113125000Y-71390533D02*
X113315476Y-72104819D01*
X113315476Y-72104819D02*
X113553572Y-71104819D01*
X114458333Y-72104819D02*
X113886905Y-72104819D01*
X114172619Y-72104819D02*
X114172619Y-71104819D01*
X114172619Y-71104819D02*
X114077381Y-71247676D01*
X114077381Y-71247676D02*
X113982143Y-71342914D01*
X113982143Y-71342914D02*
X113886905Y-71390533D01*
X99941666Y-72854819D02*
X99941666Y-73569104D01*
X99941666Y-73569104D02*
X99894047Y-73711961D01*
X99894047Y-73711961D02*
X99798809Y-73807200D01*
X99798809Y-73807200D02*
X99655952Y-73854819D01*
X99655952Y-73854819D02*
X99560714Y-73854819D01*
X100370238Y-72950057D02*
X100417857Y-72902438D01*
X100417857Y-72902438D02*
X100513095Y-72854819D01*
X100513095Y-72854819D02*
X100751190Y-72854819D01*
X100751190Y-72854819D02*
X100846428Y-72902438D01*
X100846428Y-72902438D02*
X100894047Y-72950057D01*
X100894047Y-72950057D02*
X100941666Y-73045295D01*
X100941666Y-73045295D02*
X100941666Y-73140533D01*
X100941666Y-73140533D02*
X100894047Y-73283390D01*
X100894047Y-73283390D02*
X100322619Y-73854819D01*
X100322619Y-73854819D02*
X100941666Y-73854819D01*
X82016666Y-72854819D02*
X82016666Y-73569104D01*
X82016666Y-73569104D02*
X81969047Y-73711961D01*
X81969047Y-73711961D02*
X81873809Y-73807200D01*
X81873809Y-73807200D02*
X81730952Y-73854819D01*
X81730952Y-73854819D02*
X81635714Y-73854819D01*
X83016666Y-73854819D02*
X82445238Y-73854819D01*
X82730952Y-73854819D02*
X82730952Y-72854819D01*
X82730952Y-72854819D02*
X82635714Y-72997676D01*
X82635714Y-72997676D02*
X82540476Y-73092914D01*
X82540476Y-73092914D02*
X82445238Y-73140533D01*
X112459819Y-104463094D02*
X111459819Y-104463094D01*
X111459819Y-104463094D02*
X111459819Y-104224999D01*
X111459819Y-104224999D02*
X111507438Y-104082142D01*
X111507438Y-104082142D02*
X111602676Y-103986904D01*
X111602676Y-103986904D02*
X111697914Y-103939285D01*
X111697914Y-103939285D02*
X111888390Y-103891666D01*
X111888390Y-103891666D02*
X112031247Y-103891666D01*
X112031247Y-103891666D02*
X112221723Y-103939285D01*
X112221723Y-103939285D02*
X112316961Y-103986904D01*
X112316961Y-103986904D02*
X112412200Y-104082142D01*
X112412200Y-104082142D02*
X112459819Y-104224999D01*
X112459819Y-104224999D02*
X112459819Y-104463094D01*
X112459819Y-102939285D02*
X112459819Y-103510713D01*
X112459819Y-103224999D02*
X111459819Y-103224999D01*
X111459819Y-103224999D02*
X111602676Y-103320237D01*
X111602676Y-103320237D02*
X111697914Y-103415475D01*
X111697914Y-103415475D02*
X111745533Y-103510713D01*
X112779819Y-107796904D02*
X111779819Y-107796904D01*
X112779819Y-107225476D02*
X112208390Y-107654047D01*
X111779819Y-107225476D02*
X112351247Y-107796904D01*
D14*
%TO.C,X1*%
X119075200Y-140451700D02*
X79070200Y-140451700D01*
X79070200Y-139245200D01*
X119075200Y-139245200D01*
X119075200Y-140451700D01*
G36*
X119075200Y-140451700D02*
G01*
X79070200Y-140451700D01*
X79070200Y-139245200D01*
X119075200Y-139245200D01*
X119075200Y-140451700D01*
G37*
D15*
%TO.C,SW1*%
X109625000Y-75150000D02*
X109625000Y-76650000D01*
X110875000Y-79150000D02*
X115375000Y-79150000D01*
X115375000Y-72650000D02*
X110875000Y-72650000D01*
X116625000Y-76650000D02*
X116625000Y-75150000D01*
%TO.C,J2*%
X102045000Y-74655000D02*
X102045000Y-122975000D01*
X102045000Y-74655000D02*
X104705000Y-74655000D01*
X102045000Y-122975000D02*
X104705000Y-122975000D01*
X103375000Y-72055000D02*
X104705000Y-72055000D01*
X104705000Y-72055000D02*
X104705000Y-73385000D01*
X104705000Y-74655000D02*
X104705000Y-122975000D01*
%TO.C,J1*%
X84270000Y-74655000D02*
X84270000Y-122975000D01*
X84270000Y-74655000D02*
X86930000Y-74655000D01*
X84270000Y-122975000D02*
X86930000Y-122975000D01*
X85600000Y-72055000D02*
X86930000Y-72055000D01*
X86930000Y-72055000D02*
X86930000Y-73385000D01*
X86930000Y-74655000D02*
X86930000Y-122975000D01*
%TO.C,D1*%
X114125000Y-106495000D02*
X114125000Y-105845000D01*
X113005000Y-105845000D02*
X115245000Y-105845000D01*
X115245000Y-105845000D02*
X115245000Y-101605000D01*
X113005000Y-105245000D02*
X115245000Y-105245000D01*
X113005000Y-105125000D02*
X115245000Y-105125000D01*
X113005000Y-105005000D02*
X115245000Y-105005000D01*
X113005000Y-101605000D02*
X113005000Y-105845000D01*
X115245000Y-101605000D02*
X113005000Y-101605000D01*
X114125000Y-100955000D02*
X114125000Y-101605000D01*
%TD*%
%LPC*%
D14*
%TO.C,X1*%
X119138700Y-153469200D02*
X78943200Y-153469200D01*
X78943200Y-146547700D01*
X119138700Y-146547700D01*
X119138700Y-153469200D01*
G36*
X119138700Y-153469200D02*
G01*
X78943200Y-153469200D01*
X78943200Y-146547700D01*
X119138700Y-146547700D01*
X119138700Y-153469200D01*
G37*
%TD*%
D16*
%TO.C,X1*%
X81292700Y-149976700D03*
X83832700Y-149976700D03*
X86372700Y-149976700D03*
X88912700Y-149976700D03*
X91452700Y-149976700D03*
X93992700Y-149976700D03*
X96532700Y-149976700D03*
X99072700Y-149976700D03*
X101612700Y-149976700D03*
X104152700Y-149976700D03*
X106692700Y-149976700D03*
X109232700Y-149976700D03*
X111772700Y-149976700D03*
X114312700Y-149976700D03*
D17*
X116852700Y-149341700D03*
%TD*%
D18*
%TO.C,SW1*%
X109875000Y-73650000D03*
X116375000Y-73650000D03*
X109875000Y-78150000D03*
X116375000Y-78150000D03*
%TD*%
D19*
%TO.C,J2*%
X103375000Y-73385000D03*
D20*
X103375000Y-75925000D03*
X103375000Y-78465000D03*
X103375000Y-81005000D03*
X103375000Y-83545000D03*
X103375000Y-86085000D03*
X103375000Y-88625000D03*
X103375000Y-91165000D03*
X103375000Y-93705000D03*
X103375000Y-96245000D03*
X103375000Y-98785000D03*
X103375000Y-101325000D03*
X103375000Y-103865000D03*
X103375000Y-106405000D03*
X103375000Y-108945000D03*
X103375000Y-111485000D03*
X103375000Y-114025000D03*
X103375000Y-116565000D03*
X103375000Y-119105000D03*
X103375000Y-121645000D03*
%TD*%
D19*
%TO.C,J1*%
X85600000Y-73385000D03*
D20*
X85600000Y-75925000D03*
X85600000Y-78465000D03*
X85600000Y-81005000D03*
X85600000Y-83545000D03*
X85600000Y-86085000D03*
X85600000Y-88625000D03*
X85600000Y-91165000D03*
X85600000Y-93705000D03*
X85600000Y-96245000D03*
X85600000Y-98785000D03*
X85600000Y-101325000D03*
X85600000Y-103865000D03*
X85600000Y-106405000D03*
X85600000Y-108945000D03*
X85600000Y-111485000D03*
X85600000Y-114025000D03*
X85600000Y-116565000D03*
X85600000Y-119105000D03*
X85600000Y-121645000D03*
%TD*%
D21*
%TO.C,D1*%
X114125000Y-107535000D03*
D22*
X114125000Y-99915000D03*
%TD*%
%LPD*%
M02*
